<mxfile host="www.draw.io" modified="2019-10-21T00:33:23.200Z" agent="Mozilla/5.0 (Macintosh; Intel Mac OS X 10_14_6) AppleWebKit/537.36 (KHTML, like Gecko) Chrome/77.0.3865.120 Safari/537.36" etag="KyTbBwqAFl42BFMkf_Ug" version="12.1.3" type="github" pages="1">
  <diagram id="ZBioDiEXMWZD0WiMCRn4" name="Page-1">
    <mxGraphModel dx="858" dy="428" grid="1" gridSize="10" guides="1" tooltips="1" connect="1" arrows="1" fold="1" page="1" pageScale="1" pageWidth="827" pageHeight="1169" math="0" shadow="0">
      <root>
        <mxCell id="0"/>
        <mxCell id="1" parent="0"/>
        <mxCell id="j0TU_yjhYv-Faje6NQHb-1" value="障害発生" style="whiteSpace=wrap;html=1;aspect=fixed;fillColor=#f8cecc;strokeColor=#b85450;" vertex="1" parent="1">
          <mxGeometry x="40" y="60" width="80" height="80" as="geometry"/>
        </mxCell>
        <mxCell id="j0TU_yjhYv-Faje6NQHb-2" value="一次分析&lt;br&gt;＆&lt;br&gt;不足ログの追加対応" style="whiteSpace=wrap;html=1;aspect=fixed;fillColor=#dae8fc;strokeColor=#6c8ebf;" vertex="1" parent="1">
          <mxGeometry x="170" y="60" width="80" height="80" as="geometry"/>
        </mxCell>
        <mxCell id="j0TU_yjhYv-Faje6NQHb-3" value="再発" style="whiteSpace=wrap;html=1;aspect=fixed;fillColor=#f8cecc;strokeColor=#b85450;" vertex="1" parent="1">
          <mxGeometry x="574" y="60" width="80" height="80" as="geometry"/>
        </mxCell>
        <mxCell id="j0TU_yjhYv-Faje6NQHb-4" value="分析 &amp;amp; 改修" style="whiteSpace=wrap;html=1;aspect=fixed;fillColor=#dae8fc;strokeColor=#6c8ebf;" vertex="1" parent="1">
          <mxGeometry x="704" y="60" width="80" height="80" as="geometry"/>
        </mxCell>
        <mxCell id="j0TU_yjhYv-Faje6NQHb-6" value="再発待ち" style="rounded=0;whiteSpace=wrap;html=1;fillColor=#d5e8d4;strokeColor=#82b366;" vertex="1" parent="1">
          <mxGeometry x="297" y="60" width="223" height="80" as="geometry"/>
        </mxCell>
        <mxCell id="j0TU_yjhYv-Faje6NQHb-7" value="" style="triangle;whiteSpace=wrap;html=1;fillColor=#f5f5f5;strokeColor=#666666;fontColor=#333333;" vertex="1" parent="1">
          <mxGeometry x="130" y="60" width="30" height="80" as="geometry"/>
        </mxCell>
        <mxCell id="j0TU_yjhYv-Faje6NQHb-8" value="" style="triangle;whiteSpace=wrap;html=1;fillColor=#f5f5f5;strokeColor=#666666;fontColor=#333333;" vertex="1" parent="1">
          <mxGeometry x="260" y="60" width="30" height="80" as="geometry"/>
        </mxCell>
        <mxCell id="j0TU_yjhYv-Faje6NQHb-9" value="" style="triangle;whiteSpace=wrap;html=1;fillColor=#f5f5f5;strokeColor=#666666;fontColor=#333333;" vertex="1" parent="1">
          <mxGeometry x="536" y="60" width="30" height="80" as="geometry"/>
        </mxCell>
        <mxCell id="j0TU_yjhYv-Faje6NQHb-11" value="" style="triangle;whiteSpace=wrap;html=1;fillColor=#f5f5f5;strokeColor=#666666;fontColor=#333333;" vertex="1" parent="1">
          <mxGeometry x="665" y="60" width="30" height="80" as="geometry"/>
        </mxCell>
        <mxCell id="j0TU_yjhYv-Faje6NQHb-12" value="&lt;font style=&quot;font-size: 24px&quot;&gt;従来の場合&lt;/font&gt;" style="text;html=1;resizable=0;points=[];autosize=1;align=left;verticalAlign=top;spacingTop=-4;" vertex="1" parent="1">
          <mxGeometry x="10" y="20" width="140" height="20" as="geometry"/>
        </mxCell>
        <mxCell id="j0TU_yjhYv-Faje6NQHb-13" value="障害発生" style="whiteSpace=wrap;html=1;aspect=fixed;fillColor=#f8cecc;strokeColor=#b85450;" vertex="1" parent="1">
          <mxGeometry x="40" y="240" width="80" height="80" as="geometry"/>
        </mxCell>
        <mxCell id="j0TU_yjhYv-Faje6NQHb-16" value="分析 &amp;amp; 改修" style="whiteSpace=wrap;html=1;aspect=fixed;fillColor=#dae8fc;strokeColor=#6c8ebf;" vertex="1" parent="1">
          <mxGeometry x="170" y="240" width="80" height="80" as="geometry"/>
        </mxCell>
        <mxCell id="j0TU_yjhYv-Faje6NQHb-18" value="" style="triangle;whiteSpace=wrap;html=1;fillColor=#f5f5f5;strokeColor=#666666;fontColor=#333333;" vertex="1" parent="1">
          <mxGeometry x="130" y="240" width="30" height="80" as="geometry"/>
        </mxCell>
        <mxCell id="j0TU_yjhYv-Faje6NQHb-22" value="&lt;font style=&quot;font-size: 24px&quot;&gt;ブラックボックス分析&lt;/font&gt;" style="text;html=1;resizable=0;points=[];autosize=1;align=left;verticalAlign=top;spacingTop=-4;" vertex="1" parent="1">
          <mxGeometry x="10" y="200" width="260" height="20" as="geometry"/>
        </mxCell>
        <mxCell id="j0TU_yjhYv-Faje6NQHb-23" value="&lt;font style=&quot;font-size: 24px&quot;&gt;解決時間の短縮&lt;/font&gt;" style="rounded=1;whiteSpace=wrap;html=1;dashed=1;fillColor=#fff2cc;strokeColor=#d6b656;strokeWidth=3;" vertex="1" parent="1">
          <mxGeometry x="280" y="240" width="500" height="80" as="geometry"/>
        </mxCell>
      </root>
    </mxGraphModel>
  </diagram>
</mxfile>
